<svg width="220" height="90" viewBox="0 0 220 90" fill="none" xmlns="http://www.w3.org/2000/svg">
  <!-- Cercle verd -->
  <circle cx="60" cy="45" r="40" fill="#22c55e"/>
  <!-- Sprout Lucide -->
  <g transform="translate(40,24) scale(1.6)">
    <path d="M7 20h10" stroke="#fff" stroke-width="2" stroke-linecap="round" stroke-linejoin="round"/>
    <path d="M10 20c5.5-2.5.8-6.4 3-10" stroke="#fff" stroke-width="2" stroke-linecap="round" stroke-linejoin="round"/>
    <path d="M9.5 9.4c1.1.8 1.8 2.2 2.3 3.7-2 .4-3.5.4-4.8-.3-1.2-.6-2.3-1.9-3-4.2 2.8-.5 4.4 0 5.5.8z" stroke="#fff" stroke-width="2" stroke-linecap="round" stroke-linejoin="round"/>
    <path d="M14.1 6a7 7 0 0 0-1.1 4c1.9-.1 3.3-.6 4.3-1.4 1-1 1.6-2.3 1.7-4.6-2.7.1-4 1-4.9 2z" stroke="#fff" stroke-width="2" stroke-linecap="round" stroke-linejoin="round"/>
  </g>
  <!-- Cercle groc -->
  <circle cx="160" cy="45" r="40" fill="#eab308"/>
  <!-- Sun Lucide -->
  <g transform="translate(140,25) scale(1.6)">
    <circle cx="12" cy="12" r="4" stroke="#fff" stroke-width="2"/>
    <path d="M12 2v2" stroke="#fff" stroke-width="2" stroke-linecap="round"/>
    <path d="M12 20v2" stroke="#fff" stroke-width="2" stroke-linecap="round"/>
    <path d="m4.93 4.93 1.41 1.41" stroke="#fff" stroke-width="2" stroke-linecap="round"/>
    <path d="m17.66 17.66 1.41 1.41" stroke="#fff" stroke-width="2" stroke-linecap="round"/>
    <path d="M2 12h2" stroke="#fff" stroke-width="2" stroke-linecap="round"/>
    <path d="M20 12h2" stroke="#fff" stroke-width="2" stroke-linecap="round"/>
    <path d="m6.34 17.66-1.41 1.41" stroke="#fff" stroke-width="2" stroke-linecap="round"/>
    <path d="m19.07 4.93-1.41 1.41" stroke="#fff" stroke-width="2" stroke-linecap="round"/>
  </g>
</svg>